<?xml version="1.0" encoding="UTF-8"?>
<svg id="Layer_1" xmlns="http://www.w3.org/2000/svg" version="1.1" viewBox="0 0 108.8849216 141.7322845">
  <!-- Generator: Adobe Illustrator 29.6.1, SVG Export Plug-In . SVG Version: 2.1.1 Build 9)  -->
  <defs>
    <style>
      .st0 {
        fill: #cd2355;
      }
    </style>
  </defs>
  <path class="st0" d="M103.9733217,80.4586182c-.5681229-5.9074097-3.2237625-11.1630859-6.994873-13.9326782-.6333313-2.3066254-1.738884-4.4565468-3.2465897-6.3135414-.4927902-5.0783882-2.9694595-9.7572327-6.8919983-13.0201378.6407089-.5504608,1.1806793-1.2082863,1.5957031-1.9440002,4.5776367-2.0444908,7.8050461-6.3377113,8.1794357-9.5307007,2.3018646-2.1414566,3.7142334-5.0702438,3.9566727-8.2048302.0694885-1.2697239-.1706772-2.5373096-.6998291-3.6936092,1.9511337-1.8625774,2.6622009-4.678545,1.8292236-7.2441406-1.3666992-3.9589195-6.1551514-6.5285606-12.586792-6.8011494-1.9497223-1.6555624-4.4532547-2.5128098-7.0085526-2.3998303-1.2751236.0058489-2.5450974.1621842-3.7835693.4657598-1.1682587-.5244193-2.4387589-.7817202-3.7190018-.75317-2.4916306.0266933-4.9346771.6926165-7.0952072,1.934-.2839584-.0372858-.5700607-.0557995-.8564529-.0554199-3.1928711-.0003099-6.384758,2.1998901-8.0028076,3.5112305-1.5801468,1.2787733-2.9933167,2.7510624-4.2062912,4.3822594-1.2130051-1.6309671-2.6260452-3.103137-4.2059402-4.3819504-1.6181335-1.3112993-4.8099327-3.5111895-8.0026817-3.5114994-.2864723-.000371-.5726547.0181417-.8566895.0554199-2.1605186-1.2412324-4.6034622-1.907146-7.0950012-1.934-1.2803192-.0285354-2.5508919.2287641-3.7192383.75317-1.2384186-.3036008-2.5083466-.45995-3.7834244-.4657998-2.5553207-.1129441-5.058876.7442851-7.008667,2.3997998-6.4319992.2725897-11.2203293,2.8422298-12.5869999,6.8014603-.8330803,2.5654736-.1220493,5.3813877,1.8290997,7.2438297-.5290222,1.1564388-.7690868,2.4241161-.6995316,3.6939106.2424412,3.1344967,1.6548119,6.0631866,3.9566593,8.2045288.3743896,3.1932411,3.6018085,7.4862099,8.1794491,9.5307007.4149323.735672.9547691,1.3934898,1.5953293,1.9440002-3.9222794,3.2630692-6.3987732,7.9418526-6.8915997,13.0201416-1.5077438,1.8569679-2.6132946,4.006897-3.2465801,6.3135376-3.7711201,2.7695923-6.4267597,8.0252686-6.9948692,13.932373-.564949,5.8717117,1.0458908,11.3532715,4.3246994,14.8255005.5874538,2.9530106,1.8033619,5.7450714,3.5651894,8.1866531.393507,4.6167374,2.2815647,8.9792938,5.3779297,12.4262695,3.0959625,3.5589523,7.2531738,6.0293961,11.8591309,7.0473633,2.7473106,2.5583496,5.9696503,4.5531235,9.4846191,5.8714066,4.0002975,3.8493195,9.368763,5.9472351,14.9190712,5.8301392,5.5503464.1169281,10.9188309-1.980957,14.9193115-5.8301392,3.5148926-1.318428,6.7372055-3.313179,9.4846191-5.8713989,4.6058502-1.0180588,8.7629547-3.4884949,11.8588791-7.0473633,3.0962143-3.4469681,4.9842529-7.8093872,5.3779297-12.4260025,1.7620316-2.4415817,2.977951-5.2337799,3.5651932-8.1869507,3.278717-3.4721832,4.8895569-8.9537582,4.3250427-14.8251419ZM81.8223894,62.5018883c-3.9659348-2.1936836-7.4713364-5.1319923-10.3239975-8.6538086-3.7026367-4.3991699-1.2961502-6.3587608,4.5363693-5.3021202,4.5235825,1.2009087,8.2782745,4.3522949,10.2453613,8.5991211,2.0722961,5.5126305.4580383,8.163147-4.4577332,5.3568077ZM66.4647157,15.6456299c.2692871-.0771408.5501251.0786257.6272659.3479137.017746.0619564.0235214.1267262.0170212.1908455-.1608887,1.5170002.7568436,1.3259201.9736328,1.0563297,2.3891602-2.9706402,4.9197998-3.6465397,7.1855469-3.4470005.2787247.0286531.4814529.2778349.4527969.5565624-.0098114.0954294-.0464783.1861229-.1057434.2615576-.9002686,1.3353205.0692062,1.5892305.4281006,1.3493605,3.677002-2.2989998,7.1845703-2.3031597,8.5307617-1.3375196.2241898.1672363.2703552.4845495.1031189.7087374-.021431.0287285-.045845.0550995-.0728455.0786724-1.3608398,1.1592999-.598999,1.73633-.1184082,1.5604305,3.7330017-1.3174496,8.8867188-.1519203,10.6845703,1.3680992.216568.180954.2454376.503212.0644836.71978-.0158997.0190334-.0331726.0368843-.0516663.0534096-2.1596451,1.651474-3.5644608,4.1020279-3.8983078,6.8001709-.1013184.8941097,1.3823166.7059994,2.0084229.5449295.271286-.0690556.5471878.0948849.6162415.3661709.008934.0350857.0140762.0710258.0153503.1072083.0565186,2.1491108-1.9759521,4.5114193-5.0001221,6.5315609-.4049988.2705688-.3474121.9197388.5768967.9436607.2766266.0009727.5000916.2260132.499115.5026398-.0003128.0885582-.0240936.1754494-.0689316.2518196-1.0783691,2.001709-2.5449219,3.8863487-7.5400009,5.1805382-.2733383.0719566-.4365845.3518715-.3646317.625206.0402222.1527863.1487579.2784309.294075.340435.2604752.0728416.4125824.3430519.3397446.6035271-.0293274.1048775-.0927811.1969833-.1803131.2617645-4.9733887,4.2727699-17.5802002,2.5883217-19.1804199-4.6030006-.0312119-.1437912.001915-.2940445.0906982-.4113808,5.3510132-7.1460419,12.5917969-12.6552677,20.9061203-15.90662.2054367-.0773487.3092728-.306591.231926-.5120296-.0657349-.174593-.2440491-.2799721-.4286957-.2533512-9.100975,1.3228893-17.2851257,6.2568016-22.7040024,13.6873817-.1506348.2031059-.4270096.2657814-.6505203.1475182-8.0810776-4.1720963-1.4452209-16.4914875,5.7187195-18.6753273ZM54.4425066,47.4976273c3.562645-.0127373,7.020546,1.2043457,9.7898102,3.4457321,7.0297928,5.8427696-1.0244064,9.9789391-9.7897873,9.9789391s-16.8195801-4.1361694-9.7897987-9.9789391c2.7692413-2.2413979,6.2271385-3.4584808,9.7897758-3.4457321ZM18.9530084,35.1609993c-.1400833-.2384987-.0603027-.5453987.178196-.685482.0763626-.0448494.1632462-.0686531.2518044-.0689774.9244385-.0239182.9820518-.6730881.5769005-.9436607-3.0239983-2.0201397-5.0565109-4.3824501-5.0001202-6.531559.0098801-.279789.2447052-.4985943.5244961-.4887123.0361423.001276.0720444.0064163.1070938.0153332.6260986.1610699,2.1098709.3491802,2.0083008-.5449295-.3338013-2.6980991-1.7385292-5.1486397-3.8980694-6.800169-.2104816-.1879425-.2287521-.5109291-.0408096-.7214108.0165539-.0185375.0344372-.0358429.0535088-.0517788,1.7977295-1.5200005,6.95154-2.6855497,10.6846905-1.3680992.4804688.1758995,1.2421913-.4011307-.1184082-1.5604305-.210743-.1839561-.23246-.5039253-.0485039-.7146692.0235252-.0269508.049839-.0513344.0785027-.0727406,1.3464394-.9656401,4.8537598-.9614897,8.5308914,1.3375196.3590012.2398701,1.3283615-.0139999.4281006-1.3493595-.1731033-.2203522-.1347961-.5393095.085556-.7124109.0753822-.0592203.1660042-.0958719.261364-.1057091,2.2658691-.1995201,4.7965088.4763803,7.1856689,3.4469995.2168007.2695904,1.1346397.4606304.9737511-1.0563297-.028286-.2786703.1746941-.5275068.4533653-.5557909.0641441-.0065107.1289444-.0007305.1909256.0170307,7.1639404,2.1838408,13.7996826,14.5032301,5.71875,18.6753511-.2235489.1182632-.4999542.0555954-.650631-.1475182-5.4188042-7.4305649-13.6028709-12.3644905-22.7037849-13.6874161-.2172928-.031292-.418808.1194897-.4500999.3367805-.0265808.1845722.0787163.3628101.2532005.4286003,8.3143501,3.2513618,15.5551796,8.7605839,20.90625,15.90662.0886917.1173782.121769.2676048.09058.4113808-1.6002197,7.1912804-14.2069092,8.8757286-19.1803017,4.6030006-.2174263-.1608047-.2633286-.4674263-.1025238-.6848526.0648041-.0876198.1569824-.1511192.2619438-.180439.2599678-.1109924.3807373-.4117165.2697449-.6716843-.0620117-.145237-.1875954-.2537193-.3403053-.2939568-4.9951057-1.2942314-6.4616661-3.1788712-7.5400276-5.1805305ZM22.604738,57.1451302c1.9671288-4.2467461,5.7217484-7.3981056,10.2452393-8.5991287,5.8326416-1.0566406,8.2392578.9029503,4.536499,5.3021202-2.8527031,3.5218163-6.358139,6.460125-10.3241005,8.6538086-4.9155273,2.8062973-6.5297775.1557808-4.4576378-5.3568497v.0000496ZM12.4363992,87.7763138c-1.632616-4.4141159-1.204031-9.32724,1.1682205-13.3919983,2.5971603-4.4190674,5.2111816-4.2431107,6.2487793-.4994507,1.3178749,5.1625443.8406944,10.6198044-1.3531494,15.4752808-1.9233398,3.8229675-4.3289318,2.5310211-6.0638504-1.5838318ZM31.1647966,116.3996048c-6.5140419-1.6446075-11.2507439-7.2646179-11.7684784-13.9630814.9751396-22.6875229,33.6726532,17.8289795,11.7684784,13.9630814ZM31.8303163,88.1426086c-5.4832687-3.1657715-6.9342003-10.9179993-3.2408409-17.3151321,3.6933594-6.3970032,11.1323204-9.0166016,16.6156006-5.8508301,5.4832802,3.1657181,6.93433,10.9179993,3.2410011,17.3150711-3.6935081,6.3971252-11.1327591,9.0166931-16.615757,5.8509216l-.0000038-.0000305ZM63.5921648,125.0582581c-5.4651718,3.9352112-12.8343887,3.9352112-18.2995605,0-5.4331093-3.7519531.0328293-8.0690002,9.1499023-8.0690002,9.1169434.000061,14.5830154,4.3170853,9.1496582,8.0690308v-.0000305ZM54.4425066,111.3049011c-7.0290604,0-12.7275391-4.8842773-12.7275391-10.9093018s5.6984787-10.9094238,12.7275391-10.9094238,12.7275391,4.8843994,12.7275391,10.9094238-5.6984863,10.9093323-12.7275391,10.9093323v-.0000305ZM60.4388445,82.2917175c-3.6933594-6.3971024-2.2421875-14.149353,3.2409973-17.3150711,5.4831619-3.1657715,12.9223709-.5462036,16.6157227,5.8508301,3.6933594,6.3971634,2.2421875,14.1493607-3.2409973,17.3151321s-12.9223709.5462341-16.615715-5.8508606l-.0000076-.0000305ZM77.7201021,116.3995972c-21.9041824,3.8658981,10.7934494-36.6506348,11.7685471-13.9630814-.5177765,6.6984711-5.2544937,12.3184662-11.7685471,13.9630814ZM96.4486101,87.7763062c-1.7351074,4.1148605-4.1406174,5.4067993-6.064003,1.5838013-2.1938629-4.8554764-2.67099-10.312767-1.3529968-15.4752808,1.0373535-3.74366,3.6513672-3.9196167,6.2485275.4994507,2.3724594,4.0646973,2.8011398,8.97789,1.1684723,13.3920288Z"/>
</svg>